<svg xmlns="http://www.w3.org/2000/svg" viewBox="0 0 258.01 258.01"><defs><style>.cls-1{fill:#ffd629;}.cls-2{fill:#ce9800;}.cls-3{fill:#ff822e;}.cls-4{fill:#fff9f8;}</style></defs><title>表情</title><g id="图层_2" data-name="图层 2"><g id="图层_1-2" data-name="图层 1"><circle class="cls-1" cx="129" cy="129" r="129"/><path class="cls-2" d="M21.34,117.32a171,171,0,0,1,17.71-4.43c5.91-1.19,11.84-2.16,17.76-3,11.86-1.64,23.75-2.65,35.65-3.19a7.79,7.79,0,0,1,6.74,12.23l0,.07C91.92,129.38,84.26,139.45,76,149.13c-4.14,4.81-8.36,9.57-12.83,14.16-2.24,2.29-4.5,4.57-6.85,6.78s-4.73,4.4-7.29,6.47c1.09-3.11,2.34-6.1,3.64-9s2.67-5.85,4.07-8.73c2.82-5.75,5.88-11.33,9-16.85,6.33-11,13.24-21.6,20.58-31.9l6.69,12.3c-11.9.4-23.83.33-35.78-.37-6-.38-12-.87-17.95-1.59A169.06,169.06,0,0,1,21.34,117.32Z"/><path class="cls-2" d="M172.32,28.07a167.87,167.87,0,0,1-5.52,17.4c-2.09,5.66-4.38,11.2-6.78,16.69-4.83,11-10.21,21.6-16,32L136.13,82.6c12.51-1.83,25.1-3.13,37.78-3.75,6.35-.28,12.71-.45,19.11-.34,3.2.07,6.41.16,9.63.36s6.45.44,9.7.89c-3,1.33-6,2.47-9.08,3.54s-6.09,2-9.15,3c-6.12,1.88-12.29,3.46-18.46,5-12.36,2.91-24.82,5.13-37.36,6.82h-.08a7.79,7.79,0,0,1-7.81-11.58c5.91-10.34,12.24-20.46,19.11-30.26,3.46-4.89,7-9.72,10.78-14.44A169.9,169.9,0,0,1,172.32,28.07Z"/><path class="cls-3" d="M168.88,193.39c-33.75,18-62.2,2.37-75.75-12a46.92,46.92,0,0,1-5.65-7.18,6.55,6.55,0,0,1,3-9.56c16.1-6.62,57.82-31.28,86.24-56.73,3.33-3,8.2-3.37,11.14,0a41.68,41.68,0,0,1,4,5.51C203,131.67,211.36,170.69,168.88,193.39Z"/><path class="cls-4" d="M191.88,113.43c-8.39,17.43-18.15,28.68-39,43.83-19.3,14-44.79,19.75-59.7,24.12a46.92,46.92,0,0,1-5.65-7.18,6.55,6.55,0,0,1,3-9.56c16.1-6.62,57.82-31.28,86.24-56.73,3.33-3,8.2-3.37,11.14,0A41.68,41.68,0,0,1,191.88,113.43Z"/></g></g></svg>