<?xml version="1.0" standalone="no"?><!DOCTYPE svg PUBLIC "-//W3C//DTD SVG 1.1//EN" "http://www.w3.org/Graphics/SVG/1.1/DTD/svg11.dtd"><svg t="1614421724390" class="icon" viewBox="0 0 1243 1024" version="1.1" xmlns="http://www.w3.org/2000/svg" p-id="2104" xmlns:xlink="http://www.w3.org/1999/xlink" width="155.375" height="128"><defs><style type="text/css"></style></defs><path d="M879.507234 0.177751h350.836556a93.307595 93.307595 0 0 1 11.66345 42.921494 30.791506 30.791506 0 0 1-9.797298 26.126126 57.384171 57.384171 0 0 1-33.590734 7.464608h-46.653797q-57.850709 134.829474-204.343633 493.597176t-182.882886 405.888037a159.089449 159.089449 0 0 1-132.963322 46.653798 597.635145 597.635145 0 0 1-124.099101-6.064994q-12.129987-6.064994-184.2825-413.819183T87.792292 76.223441H12.679679a104.971044 104.971044 0 0 1-12.596526-46.653798A25.193051 25.193051 0 0 1 10.346989 7.175821 61.116475 61.116475 0 0 1 43.471185 0.177751h389.559208a86.776063 86.776063 0 0 1 12.596525 42.921494 30.791506 30.791506 0 0 1-9.797297 26.126126 60.183399 60.183399 0 0 1-34.990348 7.464608h-46.653798q27.059202 93.307595 163.754829 438.545695t150.225228 344.305025q13.529601 0 134.362936-342.438873A2827.220122 2827.220122 0 0 0 933.159101 76.223441h-84.443373a104.971044 104.971044 0 0 1-12.596526-46.653798 25.659589 25.659589 0 0 1 10.263836-22.393822 60.183399 60.183399 0 0 1 33.124196-6.99807" fill="#FFC61A" p-id="2105"></path></svg>