<?xml version="1.0" standalone="no"?><svg xmlns="http://www.w3.org/2000/svg" viewBox="0 0 1440 320"><path fill="#0099ff" fill-opacity="1" d="M0,160L8.6,160C17.1,160,34,160,51,160C68.6,160,86,160,103,160C120,160,137,160,154,160C171.4,160,189,160,206,176C222.9,192,240,224,257,208C274.3,192,291,128,309,101.3C325.7,75,343,85,360,90.7C377.1,96,394,96,411,128C428.6,160,446,224,463,245.3C480,267,497,245,514,202.7C531.4,160,549,96,566,90.7C582.9,85,600,139,617,176C634.3,213,651,235,669,202.7C685.7,171,703,85,720,85.3C737.1,85,754,171,771,186.7C788.6,203,806,149,823,144C840,139,857,181,874,197.3C891.4,213,909,203,926,186.7C942.9,171,960,149,977,154.7C994.3,160,1011,192,1029,186.7C1045.7,181,1063,139,1080,122.7C1097.1,107,1114,117,1131,128C1148.6,139,1166,149,1183,133.3C1200,117,1217,75,1234,80C1251.4,85,1269,139,1286,154.7C1302.9,171,1320,149,1337,149.3C1354.3,149,1371,171,1389,181.3C1405.7,192,1423,192,1431,192L1440,192L1440,320L1431.4,320C1422.9,320,1406,320,1389,320C1371.4,320,1354,320,1337,320C1320,320,1303,320,1286,320C1268.6,320,1251,320,1234,320C1217.1,320,1200,320,1183,320C1165.7,320,1149,320,1131,320C1114.3,320,1097,320,1080,320C1062.9,320,1046,320,1029,320C1011.4,320,994,320,977,320C960,320,943,320,926,320C908.6,320,891,320,874,320C857.1,320,840,320,823,320C805.7,320,789,320,771,320C754.3,320,737,320,720,320C702.9,320,686,320,669,320C651.4,320,634,320,617,320C600,320,583,320,566,320C548.6,320,531,320,514,320C497.1,320,480,320,463,320C445.7,320,429,320,411,320C394.3,320,377,320,360,320C342.9,320,326,320,309,320C291.4,320,274,320,257,320C240,320,223,320,206,320C188.6,320,171,320,154,320C137.1,320,120,320,103,320C85.7,320,69,320,51,320C34.3,320,17,320,9,320L0,320Z"></path></svg>